<?xml version="1.0" encoding="UTF-8"?>
<svg width="128pt" height="128pt" version="1.1" viewBox="0 0 128 128" xmlns="http://www.w3.org/2000/svg">
 <g fill="#fff">
  <path d="m85.121 110.21h-67.328v-67.328h35.969l14.594-14.594-57.859 0.003906c-3.9688 0-7.2969 3.1992-7.2969 7.2969v81.922c0 3.9688 3.1992 7.2969 7.2969 7.2969h81.922c3.9688 0 7.2969-3.1992 7.2969-7.2969l-0.003906-57.73-14.59 14.59z"/>
  <path d="m117.5 3.1992h-37.246c-4.0977 0-7.2969 3.1992-7.2969 7.2969s3.1992 7.2969 7.2969 7.2969h19.711l-43.777 43.773c-2.8164 2.8164-2.8164 7.4258 0 10.238 1.4062 1.4062 3.3281 2.1758 5.1211 2.1758s3.7109-0.76953 5.1211-2.1758l43.777-43.777v19.711c0 3.9688 3.1992 7.2969 7.2969 7.2969 3.9688 0 7.2969-3.1992 7.2969-7.2969l-0.003907-37.242c0-4.0977-3.1992-7.2969-7.2969-7.2969z"/>
 </g>
</svg>
