<svg id="Layer_1" data-name="Layer 1" xmlns="http://www.w3.org/2000/svg" viewBox="0 0 150 150"><defs><style>.cls-1{fill:none;}.cls-2{fill:#ffffff;}</style></defs><circle class="cls-1" cx="75.116" cy="74.834" r="73.624"/><path class="cls-2" d="M140.543,74.834a14.3,14.3,0,0,0-24.244-10.3c-9.786-7.062-23.268-11.622-38.285-12.146l6.521-30.681,21.306,4.529a10.241,10.241,0,1,0,1.047-5L83.1,16.175a2.556,2.556,0,0,0-3.031,1.97L72.783,52.379c-15.237.423-28.936,4.99-38.847,12.13A14.307,14.307,0,1,0,18.178,87.887a28.183,28.183,0,0,0-.342,4.33c0,22.025,25.638,39.88,57.264,39.88s57.263-17.855,57.263-39.88a28.173,28.173,0,0,0-.337-4.3A14.311,14.311,0,0,0,140.543,74.834Z"/></svg>