<svg xmlns="http://www.w3.org/2000/svg" xmlns:xlink="http://www.w3.org/1999/xlink" width="125" height="24" viewBox="0 0 125 24">
  <defs>
    <clipPath id="clip-path">
      <rect id="mask" width="125" height="24" transform="translate(16 126.064)" fill="#fff" opacity="0.5"/>
    </clipPath>
  </defs>
  <g id="window-2a-bottom" transform="translate(-16 -126.064)">
    <g id="content-mask" clip-path="url(#clip-path)">
      <g id="content" transform="translate(0 70)" fill="rgba(47,53,57,0.6)">
        <path d="M 113.9142150878906 79.064208984375 L 113.5 79.064208984375 L 19.5 79.064208984375 L 19.08578300476074 79.064208984375 L 18.79290008544922 78.77130889892578 L 17.29290008544922 77.27130889892578 L 17 76.97842407226562 L 17 76.564208984375 L 17 55.064208984375 L 17 54.064208984375 L 18 54.064208984375 L 139 54.064208984375 L 140 54.064208984375 L 140 55.064208984375 L 140 69.064208984375 L 140 69.47842407226562 L 139.7071075439453 69.77130889892578 L 134.7071075439453 74.77130889892578 L 134.4142150878906 75.064208984375 L 134 75.064208984375 L 117.9141998291016 75.064208984375 L 114.2070999145508 78.77130889892578 L 113.9142150878906 79.064208984375 Z" stroke="none"/>
        <path d="M 113.5 78.064208984375 L 117.5 74.064208984375 L 134 74.064208984375 L 139 69.064208984375 L 139 55.064208984375 L 18 55.064208984375 L 18 76.564208984375 L 19.5 78.064208984375 L 113.5 78.064208984375 M 114.3284301757812 80.064208984375 L 18.67156600952148 80.064208984375 L 16 77.39263916015625 L 16 53.064208984375 L 141 53.064208984375 L 141 69.89263916015625 L 134.8284301757812 76.064208984375 L 118.3284301757812 76.064208984375 L 114.3284301757812 80.064208984375 Z" stroke="none" fill="#fff"/>
      </g>
    </g>
    <path id="edge" d="M79,70.5v4L74.5,79l-20.587.064L57,76H73.5Z" transform="translate(62 71)" fill="#fff" opacity="0.503"/>
    <path id="bottom-right" d="M100,148.063l2,2h11.5l4-4h17l6.5-6.5v-10.5l-2-2v11.5l-5.5,5.5H117l-4,4Z" fill="#fff"/>
    <path id="bottom-left" d="M33.5,148.064l-2,2H19l-3-3v-11.5l2-2v13l1.5,1.5Z" fill="#fff"/>
  </g>
</svg>
