<svg xmlns="http://www.w3.org/2000/svg" xmlns:xlink="http://www.w3.org/1999/xlink" width="105" height="45" viewBox="0 0 105 45">
  <defs>
    <clipPath id="clip-path">
      <rect id="Rectangle_4" data-name="Rectangle 4" width="105" height="45" transform="translate(16 86)" fill="#fff" opacity="0.5"/>
    </clipPath>
  </defs>
  <g id="window-2a-header" transform="translate(-16 -86)">
    <g id="content-mask" clip-path="url(#clip-path)">
      <g id="content" transform="translate(0 70)" fill="rgba(47,53,57,0.6)">
        <path d="M 123 63 L 122 63 L 18 63 L 17 63 L 17 62 L 17 42.5 L 17 42.1104850769043 L 17.26347160339355 41.82360076904297 L 39.76346969604492 17.32360076904297 L 40.06064224243164 17 L 40.5 17 L 76.5 17 L 76.6990966796875 17 L 76.88301086425781 17.07625770568848 L 117.6990966796875 34 L 122 34 L 123 34 L 123 35 L 123 62 L 123 63 Z" stroke="none"/>
        <path d="M 122 62 L 122 35 L 117.5 35 L 76.5 18 L 40.5 18 L 18 42.5 L 18 62 L 122 62 M 124 64 L 16 64 L 16 41.72097015380859 L 39.62129211425781 16 L 76.89820098876953 16 L 117.8981781005859 33 L 124 33 L 124 64 Z" stroke="none" fill="#fff"/>
      </g>
    </g>
    <path id="top-left" d="M58,86l2,2v16.5L36,130H18l-2-2H35l23-24.5Z" transform="translate(76 216) rotate(180)" fill="#fff"/>
  </g>
</svg>
